<?xml version="1.0" encoding="iso-8859-1"?>
<!-- Uploaded to: SVG Repo, www.svgrepo.com, Generator: SVG Repo Mixer Tools -->
<!DOCTYPE svg PUBLIC "-//W3C//DTD SVG 1.1//EN" "http://www.w3.org/Graphics/SVG/1.1/DTD/svg11.dtd">
<svg fill="#000000" version="1.1" id="Capa_1" xmlns="http://www.w3.org/2000/svg" xmlns:xlink="http://www.w3.org/1999/xlink" 
	 width="800px" height="800px" viewBox="0 0 34.152 34.152"
	 xml:space="preserve">
<g>
	<path d="M33.402,11.283L17.826,2.288c-0.465-0.269-1.035-0.269-1.5,0L0.75,11.283C0.286,11.552,0,12.045,0,12.582v17.985
		c0,0.829,0.672,1.5,1.5,1.5h31.152c0.828,0,1.5-0.671,1.5-1.5V12.582C34.152,12.045,33.867,11.552,33.402,11.283z M17.076,5.319
		l12.854,7.422l-12.854,7.421L4.223,12.741L17.076,5.319z M3,29.066V14.344l13.576,7.84c0.153,0.089,0.327,0.135,0.5,0.135
		s0.346-0.046,0.5-0.135l13.576-7.84v14.723H3z"/>
</g>
</svg>